<svg xmlns="http://www.w3.org/2000/svg" xmlns:xlink="http://www.w3.org/1999/xlink" xmlns:inkscape="http://www.inkscape.org/namespaces/inkscape" version="1.1" width="436" height="50" viewBox="0 0 436 50">
<defs>
<clipPath id="clip_1">
<path transform="matrix(1,0,0,-1,-148,79)" d="M148 29H584V79H148Z" clip-rule="evenodd"/>
</clipPath>
</defs>
<g clip-path="url(#clip_1)">
<path transform="matrix(1,0,0,-1,-148,79)" d="M156 37H226V71H156Z" fill="#ffffff" fill-rule="evenodd"/>
<path transform="matrix(1,0,0,-1,-148,79)" stroke-width="1.5" stroke-linecap="butt" stroke-miterlimit="10" stroke-linejoin="miter" fill="none" stroke="#18212f" d="M156 37H226V71H156Z"/>
<path transform="matrix(1,0,0,-1,-148,79)" d="M226 37H296V71H226Z" fill="#ffffff" fill-rule="evenodd"/>
<path transform="matrix(1,0,0,-1,-148,79)" stroke-width="1.5" stroke-linecap="butt" stroke-miterlimit="10" stroke-linejoin="miter" fill="none" stroke="#18212f" d="M226 37H296V71H226Z"/>
<path transform="matrix(1,0,0,-1,-148,79)" d="M296 37H366V71H296Z" fill="#ffffff" fill-rule="evenodd"/>
<path transform="matrix(1,0,0,-1,-148,79)" stroke-width="1.5" stroke-linecap="butt" stroke-miterlimit="10" stroke-linejoin="miter" fill="none" stroke="#18212f" d="M296 37H366V71H296Z"/>
<path transform="matrix(1,0,0,-1,-148,79)" d="M366 37H436V71H366Z" fill="#ffffff" fill-rule="evenodd"/>
<path transform="matrix(1,0,0,-1,-148,79)" stroke-width="1.5" stroke-linecap="butt" stroke-miterlimit="10" stroke-linejoin="miter" fill="none" stroke="#18212f" d="M366 37H436V71H366Z"/>
<path transform="matrix(1,0,0,-1,-148,79)" d="M436 37H506V71H436Z" fill="#ffffff" fill-rule="evenodd"/>
<path transform="matrix(1,0,0,-1,-148,79)" stroke-width="1.5" stroke-linecap="butt" stroke-miterlimit="10" stroke-linejoin="miter" fill="none" stroke="#18212f" d="M436 37H506V71H436Z"/>
<path transform="matrix(1,0,0,-1,-148,79)" d="M506 37H576V71H506Z" fill="#ffffff" fill-rule="evenodd"/>
<path transform="matrix(1,0,0,-1,-148,79)" stroke-width="1.5" stroke-linecap="butt" stroke-miterlimit="10" stroke-linejoin="miter" fill="none" stroke="#18212f" d="M506 37H576V71H506Z"/>
</g>
</svg>
