<svg xmlns="http://www.w3.org/2000/svg" xmlns:xlink="http://www.w3.org/1999/xlink" xmlns:inkscape="http://www.inkscape.org/namespaces/inkscape" version="1.1" width="320" height="162.8333" viewBox="0 0 320 162.8333">
<defs>
<clipPath id="clip_1">
<path transform="matrix(1,0,0,-1,-44,228.8333)" d="M44 66H364V228.8333H44Z" clip-rule="evenodd"/>
</clipPath>
<path id="font_2_79" d="M.5908203 .45619203C.61295577 .49015809 .6392415 .51604208 .66967776 .533844 .70011398 .55164596 .7335612 .5605469 .77001956 .5605469 .83284506 .5605469 .8806966 .5411682 .9135742 .5024109 .94645187 .46365357 .9628906 .40731303 .9628906 .33338929V0H.7871094V.28547669C.7874349 .28970848 .787679 .29410807 .7878418 .29867555 .7880046 .303243 .78808596 .30976359 .78808596 .3182373 .78808596 .35701499 .78238937 .38512168 .7709961 .40255738 .75960287 .41999308 .74121096 .42871095 .7158203 .42871095 .6826172 .42871095 .6569824 .4150238 .638916 .38764955 .6208496 .36027528 .6114909 .3206787 .61083987 .26885987V0H.4350586V.28547669C.4350586 .34609477 .42985026 .38512168 .4194336 .40255738 .40901695 .41999308 .39046226 .42871095 .36376954 .42871095 .33024089 .42871095 .30436198 .4149424 .2861328 .3874054 .26790367 .35986839 .25878907 .32051597 .25878907 .26934815V0H.08300781V.546875H.25878907V.46679688C.28027345 .49788413 .30493165 .52128097 .33276368 .5369873 .3605957 .55269369 .39127604 .5605469 .4248047 .5605469 .4625651 .5605469 .495931 .5514018 .52490237 .5331116 .5538737 .51482138 .5758464 .48918153 .5908203 .45619203Z"/>
<path id="font_2_1" d="M.25 .6699219C.2265625 .6699219 .20670574 .6617839 .19042969 .6455078 .17415364 .62923178 .16601563 .609375 .16601563 .5859375 .16601563 .5625 .17407227 .54280599 .19018555 .52685549 .20629883 .51090499 .22623699 .5029297 .25 .5029297 .2734375 .5029297 .29329429 .5109863 .3095703 .5270996 .32584635 .5432129 .33398438 .5628255 .33398438 .5859375 .33398438 .609375 .32576499 .62923178 .30932618 .6455078 .29288737 .6617839 .27311198 .6699219 .25 .6699219M.25 .74902346C.27148438 .74902346 .29215495 .74487307 .31201173 .73657229 .3318685 .7282715 .34960938 .7164714 .36523438 .7011719 .38053385 .6855469 .39217124 .66796877 .40014649 .6484375 .40812174 .62890627 .41210938 .60807296 .41210938 .5859375 .41210938 .5641276 .40812174 .5433757 .40014649 .52368167 .39217124 .5039876 .38085938 .4868164 .36621095 .47216798 .35058595 .45654298 .33268229 .44458009 .3125 .4362793 .29231773 .42797853 .27115885 .42382813 .24902344 .42382813 .203125 .42382813 .16463216 .43937174 .13354492 .47045899 .10245768 .5015462 .08691406 .54003909 .08691406 .5859375 .08691406 .63183596 .102620448 .6704915 .1340332 .7019043 .16544597 .7333171 .20410156 .74902346 .25 .74902346Z"/>
<path id="font_2_19" d="M.1171875 .12988281H.28320313V.6015625L.11279297 .56640627V.69433596L.28222657 .7294922H.4609375V.12988281H.6269531V0H.1171875V.12988281Z"/>
<path id="font_2_18" d="M.45996095 .3647461C.45996095 .45589195 .45141603 .5201009 .43432618 .55737307 .41723634 .5946452 .38850913 .61328127 .34814454 .61328127 .30777995 .61328127 .27897135 .5946452 .26171876 .55737307 .24446614 .5201009 .23583985 .45589195 .23583985 .3647461 .23583985 .2726237 .24446614 .2076823 .26171876 .16992188 .27897135 .13216146 .30777995 .11328125 .34814454 .11328125 .3881836 .11328125 .41682945 .13216146 .43408204 .16992188 .45133464 .2076823 .45996095 .2726237 .45996095 .3647461M.6479492 .3635254C.6479492 .24267578 .62190756 .1494344 .5698242 .08380127 .5177409 .01816813 .44384767-.0146484379 .34814454-.0146484379 .25211589-.0146484379 .17805989 .01816813 .12597656 .08380127 .07389323 .1494344 .047851564 .24267578 .047851564 .3635254 .047851564 .48470054 .07389323 .5781047 .12597656 .6437378 .17805989 .7093709 .25211589 .7421875 .34814454 .7421875 .44384767 .7421875 .5177409 .7093709 .5698242 .6437378 .62190756 .5781047 .6479492 .48470054 .6479492 .3635254Z"/>
</defs>
<g clip-path="url(#clip_1)">
<path transform="matrix(1,0,0,-1,-44,228.8333)" stroke-width="1.8" stroke-linecap="butt" stroke-miterlimit="10" stroke-linejoin="miter" fill="none" stroke="#18212f" d="M204 78H356"/>
<path transform="matrix(1,0,0,-1,-44,228.8333)" d="M356 78 348 82V74Z" fill-rule="evenodd"/>
<path transform="matrix(1,0,0,-1,-44,228.8333)" stroke-width="1.8" stroke-linecap="butt" stroke-miterlimit="10" stroke-linejoin="miter" fill="none" stroke="#18212f" d="M204 78 255.9871 220.8333"/>
<path transform="matrix(1,0,0,-1,-44,228.8333)" d="M255.9871 220.8333 249.4921 214.6838 257.0097 211.9477Z" fill-rule="evenodd"/>
<path transform="matrix(1,0,0,-1,-44,228.8333)" stroke-width="1.8" stroke-linecap="butt" stroke-miterlimit="10" stroke-linejoin="miter" fill="none" stroke="#18212f" d="M204 78H52"/>
<path transform="matrix(1,0,0,-1,-44,228.8333)" d="M52 78 60 74V82Z" fill-rule="evenodd"/>
<path transform="matrix(1,0,0,-1,-44,228.8333)" d="M207 78C207 79.65685 205.6569 81 204 81 202.3431 81 201 79.65685 201 78 201 76.34315 202.3431 75 204 75 205.6569 75 207 76.34315 207 78" fill="#18212f" fill-rule="evenodd"/>
<use data-text="m" xlink:href="#font_2_79" transform="matrix(15.75,0,0,-15.75,225.05371,102.4495)" fill="#18212f"/>
<use data-text="&#x00b0;" xlink:href="#font_2_1" transform="matrix(15.75,0,0,-15.75,241.46521,102.4495)" fill="#18212f"/>
<use data-text="1" xlink:href="#font_2_19" transform="matrix(15.75,0,0,-15.75,85.570407,79.3064)" fill="#18212f"/>
<use data-text="1" xlink:href="#font_2_19" transform="matrix(15.75,0,0,-15.75,96.53241,79.3064)" fill="#18212f"/>
<use data-text="0" xlink:href="#font_2_18" transform="matrix(15.75,0,0,-15.75,107.494419,79.3064)" fill="#18212f"/>
<use data-text="&#x00b0;" xlink:href="#font_2_1" transform="matrix(15.75,0,0,-15.75,118.45642,79.3064)" fill="#18212f"/>
</g>
</svg>
