<svg xmlns="http://www.w3.org/2000/svg" xmlns:xlink="http://www.w3.org/1999/xlink" xmlns:inkscape="http://www.inkscape.org/namespaces/inkscape" version="1.1" width="214.9731" height="95.79672" viewBox="0 0 214.9731 95.79672">
<defs>
<clipPath id="clip_1">
<path transform="matrix(1,0,0,-1,-101.8,227.59673)" d="M101.8 131.8H316.7731V227.59673H101.8Z" clip-rule="evenodd"/>
</clipPath>
<path id="font_2_52" d="M.5991211 .7059326V.55078127C.55908206 .56884768 .52001956 .5824788 .4819336 .5916748 .44384767 .6008708 .4078776 .60546877 .37402345 .60546877 .32910157 .60546877 .29589845 .59927877 .27441407 .5868988 .2529297 .574529 .2421875 .5553131 .2421875 .5292511 .2421875 .50970968 .24943035 .4944814 .26391603 .48356629 .2784017 .47265116 .3046875 .46328736 .34277345 .45547486L.42285157 .4394226C.50390627 .42314659 .56152346 .39840699 .5957031 .36520387 .6298828 .3320109 .64697268 .28481547 .64697268 .22361756 .64697268 .14321392 .62312826 .08339945 .57543948 .044174196 .5277507 .0049591066 .45491538-.0146484379 .3569336-.0146484379 .31070964-.0146484379 .2643229-.010238647 .21777344-.0014190674 .17122396 .0074005129 .12467448 .020467123 .078125 .03778076V.19726563C.12467448 .17236328 .16967774 .15360515 .21313477 .14099121 .2565918 .12837728 .2985026 .12207031 .3388672 .12207031 .3798828 .12207031 .41129557 .12891133 .43310548 .14259339 .45491538 .15627544 .4658203 .17582195 .4658203 .20123291 .4658203 .22402954 .4584147 .24161785 .44360353 .2539978 .42879234 .26637779 .3992513 .27745567 .35498048 .28723146L.28222657 .30326844C.20930989 .31889344 .15600586 .34379069 .12231445 .3779602 .08862305 .4121399 .071777347 .45820109 .071777347 .5161438 .071777347 .5887248 .095214847 .64454147 .14208985 .68359377 .18896485 .72265627 .25634767 .7421875 .34423829 .7421875 .38427735 .7421875 .42545573 .73916628 .46777345 .7331238 .5100911 .7270813 .5538737 .7180176 .5991211 .7059326Z"/>
<path id="font_2_53" d="M.0048828127 .7294922H.6767578V.58691409H.4350586V0H.24707031V.58691409H.0048828127V.7294922Z"/>
</defs>
<g clip-path="url(#clip_1)">
<path transform="matrix(1,0,0,-1,-101.8,227.59673)" d="M118.2 204C118.2 206.3196 116.3196 208.2 114 208.2 111.6804 208.2 109.8 206.3196 109.8 204 109.8 201.6804 111.6804 199.8 114 199.8 116.3196 199.8 118.2 201.6804 118.2 204" fill="#155a9c" fill-rule="evenodd"/>
<use data-text="S" xlink:href="#font_2_52" transform="matrix(14,0,0,-14,17.1585,18.636719)" fill="#18212f"/>
<path transform="matrix(1,0,0,-1,-101.8,227.59673)" d="M298.2 144C298.2 146.3196 296.3196 148.2 294 148.2 291.6804 148.2 289.8 146.3196 289.8 144 289.8 141.6804 291.6804 139.8 294 139.8 296.3196 139.8 298.2 141.6804 298.2 144" fill="#155a9c" fill-rule="evenodd"/>
<use data-text="T" xlink:href="#font_2_53" transform="matrix(14,0,0,-14,197.4251,78.63672)" fill="#18212f"/>
</g>
</svg>
