<svg xmlns="http://www.w3.org/2000/svg" xmlns:xlink="http://www.w3.org/1999/xlink" xmlns:inkscape="http://www.inkscape.org/namespaces/inkscape" version="1.1" width="136" height="106" viewBox="0 0 136 106">
<defs>
<clipPath id="clip_1">
<path transform="matrix(1,0,0,-1,-136,227)" d="M136 121H272V227H136Z" clip-rule="evenodd"/>
</clipPath>
</defs>
<g clip-path="url(#clip_1)">
<path transform="matrix(1,0,0,-1,-136,227)" d="M144 189H174V219H144Z" fill="#ffffff" fill-rule="evenodd"/>
<path transform="matrix(1,0,0,-1,-136,227)" stroke-width=".8" stroke-linecap="butt" stroke-miterlimit="10" stroke-linejoin="miter" fill="none" stroke="#6c7f95" d="M144 189H174V219H144Z"/>
<path transform="matrix(1,0,0,-1,-136,227)" d="M174 189H204V219H174Z" fill="#ffffff" fill-rule="evenodd"/>
<path transform="matrix(1,0,0,-1,-136,227)" stroke-width=".8" stroke-linecap="butt" stroke-miterlimit="10" stroke-linejoin="miter" fill="none" stroke="#6c7f95" d="M174 189H204V219H174Z"/>
<path transform="matrix(1,0,0,-1,-136,227)" d="M204 189H234V219H204Z" fill="#ffffff" fill-rule="evenodd"/>
<path transform="matrix(1,0,0,-1,-136,227)" stroke-width=".8" stroke-linecap="butt" stroke-miterlimit="10" stroke-linejoin="miter" fill="none" stroke="#6c7f95" d="M204 189H234V219H204Z"/>
<path transform="matrix(1,0,0,-1,-136,227)" d="M234 189H264V219H234Z" fill="#ffffff" fill-rule="evenodd"/>
<path transform="matrix(1,0,0,-1,-136,227)" stroke-width=".8" stroke-linecap="butt" stroke-miterlimit="10" stroke-linejoin="miter" fill="none" stroke="#6c7f95" d="M234 189H264V219H234Z"/>
<path transform="matrix(1,0,0,-1,-136,227)" d="M144 159H174V189H144Z" fill="#ffffff" fill-rule="evenodd"/>
<path transform="matrix(1,0,0,-1,-136,227)" stroke-width=".8" stroke-linecap="butt" stroke-miterlimit="10" stroke-linejoin="miter" fill="none" stroke="#6c7f95" d="M144 159H174V189H144Z"/>
<path transform="matrix(1,0,0,-1,-136,227)" d="M174 159H204V189H174Z" fill="#ffffff" fill-rule="evenodd"/>
<path transform="matrix(1,0,0,-1,-136,227)" stroke-width=".8" stroke-linecap="butt" stroke-miterlimit="10" stroke-linejoin="miter" fill="none" stroke="#6c7f95" d="M174 159H204V189H174Z"/>
<path transform="matrix(1,0,0,-1,-136,227)" d="M204 159H234V189H204Z" fill="#ffffff" fill-rule="evenodd"/>
<path transform="matrix(1,0,0,-1,-136,227)" stroke-width=".8" stroke-linecap="butt" stroke-miterlimit="10" stroke-linejoin="miter" fill="none" stroke="#6c7f95" d="M204 159H234V189H204Z"/>
<path transform="matrix(1,0,0,-1,-136,227)" d="M234 159H264V189H234Z" fill="#ffffff" fill-rule="evenodd"/>
<path transform="matrix(1,0,0,-1,-136,227)" stroke-width=".8" stroke-linecap="butt" stroke-miterlimit="10" stroke-linejoin="miter" fill="none" stroke="#6c7f95" d="M234 159H264V189H234Z"/>
<path transform="matrix(1,0,0,-1,-136,227)" d="M144 129H174V159H144Z" fill="#ffffff" fill-rule="evenodd"/>
<path transform="matrix(1,0,0,-1,-136,227)" stroke-width=".8" stroke-linecap="butt" stroke-miterlimit="10" stroke-linejoin="miter" fill="none" stroke="#6c7f95" d="M144 129H174V159H144Z"/>
<path transform="matrix(1,0,0,-1,-136,227)" d="M174 129H204V159H174Z" fill="#ffffff" fill-rule="evenodd"/>
<path transform="matrix(1,0,0,-1,-136,227)" stroke-width=".8" stroke-linecap="butt" stroke-miterlimit="10" stroke-linejoin="miter" fill="none" stroke="#6c7f95" d="M174 129H204V159H174Z"/>
<path transform="matrix(1,0,0,-1,-136,227)" d="M204 129H234V159H204Z" fill="#ffffff" fill-rule="evenodd"/>
<path transform="matrix(1,0,0,-1,-136,227)" stroke-width=".8" stroke-linecap="butt" stroke-miterlimit="10" stroke-linejoin="miter" fill="none" stroke="#6c7f95" d="M204 129H234V159H204Z"/>
<path transform="matrix(1,0,0,-1,-136,227)" d="M234 129H264V159H234Z" fill="#ffffff" fill-rule="evenodd"/>
<path transform="matrix(1,0,0,-1,-136,227)" stroke-width=".8" stroke-linecap="butt" stroke-miterlimit="10" stroke-linejoin="miter" fill="none" stroke="#6c7f95" d="M234 129H264V159H234Z"/>
</g>
</svg>
