<svg xmlns="http://www.w3.org/2000/svg" xmlns:xlink="http://www.w3.org/1999/xlink" xmlns:inkscape="http://www.inkscape.org/namespaces/inkscape" version="1.1" width="288" height="220" viewBox="0 0 288 220">
<defs>
<clipPath id="clip_1">
<path transform="matrix(1,0,0,-1,-60,284)" d="M60 64H348V284H60Z" clip-rule="evenodd"/>
</clipPath>
</defs>
<g clip-path="url(#clip_1)">
<path transform="matrix(1,0,0,-1,-60,284)" d="M68 140H136V208H68Z" fill="#e6eff9" fill-rule="evenodd"/>
<path transform="matrix(1,0,0,-1,-60,284)" stroke-width="2" stroke-linecap="butt" stroke-miterlimit="10" stroke-linejoin="miter" fill="none" stroke="#18212f" d="M68 140H136V208H68Z"/>
<path transform="matrix(1,0,0,-1,-60,284)" d="M136 140H204V208H136Z" fill="#e6eff9" fill-rule="evenodd"/>
<path transform="matrix(1,0,0,-1,-60,284)" stroke-width="2" stroke-linecap="butt" stroke-miterlimit="10" stroke-linejoin="miter" fill="none" stroke="#18212f" d="M136 140H204V208H136Z"/>
<path transform="matrix(1,0,0,-1,-60,284)" d="M204 140H272V208H204Z" fill="#e6eff9" fill-rule="evenodd"/>
<path transform="matrix(1,0,0,-1,-60,284)" stroke-width="2" stroke-linecap="butt" stroke-miterlimit="10" stroke-linejoin="miter" fill="none" stroke="#18212f" d="M204 140H272V208H204Z"/>
<path transform="matrix(1,0,0,-1,-60,284)" d="M272 140H340V208H272Z" fill="#e6eff9" fill-rule="evenodd"/>
<path transform="matrix(1,0,0,-1,-60,284)" stroke-width="2" stroke-linecap="butt" stroke-miterlimit="10" stroke-linejoin="miter" fill="none" stroke="#18212f" d="M272 140H340V208H272Z"/>
<path transform="matrix(1,0,0,-1,-60,284)" d="M136 72H204V140H136Z" fill="#e6eff9" fill-rule="evenodd"/>
<path transform="matrix(1,0,0,-1,-60,284)" stroke-width="2" stroke-linecap="butt" stroke-miterlimit="10" stroke-linejoin="miter" fill="none" stroke="#18212f" d="M136 72H204V140H136Z"/>
<path transform="matrix(1,0,0,-1,-60,284)" d="M136 208H204V276H136Z" fill="#e6eff9" fill-rule="evenodd"/>
<path transform="matrix(1,0,0,-1,-60,284)" stroke-width="2" stroke-linecap="butt" stroke-miterlimit="10" stroke-linejoin="miter" fill="none" stroke="#18212f" d="M136 208H204V276H136Z"/>
</g>
</svg>
